# xmcd
#
# Track frame offsets:
#      150
#      27032
#      40590
#      64570
#      82554
#      99902
#      117782
#      134207
#      152605
#      172317
#      192140
#      206167
#      221622
#      235740
# 
# Disc length: 3488 seconds
#
# Revision: 4
# Processed by: cddbd v1.4PL0 Copyright (c) Steve Scherf et al.
#
# Submitted via: FreeRIP 1.21
#
DISCID=b30d9e0e
DTITLE=Glenn Kaiser Band - Winter Sun
DYEAR=2000
DGENRE=blues
TTITLE0=Northbound
TTITLE1=Homesick Blues
TTITLE2=My Backyard
TTITLE3=Unfinished Business
TTITLE4=The Day Love Died
TTITLE5=Choked Up
TTITLE6=In My Younger Days
TTITLE7=Three Below Zero
TTITLE8=Winter Sun
TTITLE9=The Toll
TTITLE10=Nobody's Fault But Mine
TTITLE11=On My Dyin' Bed
TTITLE12=Thief
TTITLE13=In the Soul of a Man
EXTD=
EXTT0=
EXTT1=
EXTT2=
EXTT3=
EXTT4=
EXTT5=
EXTT6=
EXTT7=
EXTT8=
EXTT9=
EXTT10=
EXTT11=
EXTT12=
EXTT13=
PLAYORDER=
